<svg width="23" height="24" viewBox="0 0 23 24" fill="none" xmlns="http://www.w3.org/2000/svg">
<path d="M21.9924 9.72584L12.9299 0.663344C12.5051 0.238605 11.9289 0 11.3281 0C10.7274 0 10.1512 0.238605 9.72634 0.663344L0.66384 9.72584C0.452601 9.93579 0.285148 10.1856 0.171195 10.4607C0.0572416 10.7359 -0.000944397 11.031 1.15915e-05 11.3288V22.2038C1.15915e-05 22.5643 0.143231 22.9101 0.398163 23.165C0.653096 23.4199 0.998858 23.5631 1.35939 23.5631H8.60938C8.96991 23.5631 9.31568 23.4199 9.57061 23.165C9.82554 22.9101 9.96876 22.5643 9.96876 22.2038V16.3131H12.6875V22.2038C12.6875 22.5643 12.8307 22.9101 13.0857 23.165C13.3406 23.4199 13.6864 23.5631 14.0469 23.5631H21.2969C21.6574 23.5631 22.0032 23.4199 22.2581 23.165C22.513 22.9101 22.6563 22.5643 22.6563 22.2038V11.3288C22.6572 11.031 22.599 10.7359 22.4851 10.4607C22.3711 10.1856 22.2037 9.93579 21.9924 9.72584ZM19.9375 20.8444H15.4063V14.9538C15.4063 14.5932 15.263 14.2475 15.0081 13.9926C14.7532 13.7376 14.4074 13.5944 14.0469 13.5944H8.60938C8.24886 13.5944 7.90309 13.7376 7.64816 13.9926C7.39323 14.2475 7.25001 14.5932 7.25001 14.9538V20.8444H2.71876V11.5157L11.3281 2.90631L19.9375 11.5157V20.8444Z" fill="white"/>
</svg>
